# xmcd
#
# Track frame offsets: 
#        150
#        2839
#        24784
#        45519
#        64124
#        85850
#        103528
#        108951
#        128376
#        151661
#        166682
#        188494
#        204281
#        220338
#        243674
#
# Disc length: 3286 seconds
#
# Revision: 1
# Processed by: cddbd v1.5.2PL0 Copyright (c) Steve Scherf et al.
# Submitted via: ExactAudioCopyFreeDBPlugin 1.0
#
DISCID=a80cd40f
DTITLE=Cherrelle - The Right Time
DYEAR=1999
DGENRE=R&B
TTITLE0=Intro
TTITLE1=The Right Time (featuring Keith Murray)
TTITLE2=Stop Loving You
TTITLE3=Just Tell Me
TTITLE4=Don't
TTITLE5=Sleepin' With The Enemy
TTITLE6=Interlude
TTITLE7=Next To You
TTITLE8=Baby Come To Me (featuring Alexander O'Neal)
TTITLE9=Never Leave You Lonely
TTITLE10=Into My Eyes
TTITLE11=Pillow Talk
TTITLE12=Let It Go
TTITLE13=Saturday Love (featuring Alexander O'Neal)
TTITLE14=Outro
EXTD=
EXTT0=
EXTT1=
EXTT2=
EXTT3=
EXTT4=
EXTT5=
EXTT6=
EXTT7=
EXTT8=
EXTT9=
EXTT10=
EXTT11=
EXTT12=
EXTT13=
EXTT14=
PLAYORDER=
